<svg width="330" height="120" viewBox="0 0 330 120" fill="none" xmlns="http://www.w3.org/2000/svg">
<g clip-path="url(#clip0_3_12330)">
<path d="M107.64 77.3678C110.061 77.3678 111.992 75.433 111.992 73.0075C111.992 70.5819 110.061 68.6471 107.64 68.6471C101.847 68.6471 101.847 77.3621 107.64 77.3621V77.3678Z" fill="#1D1D50"/>
<path d="M142.918 100.711V89.0677L136.635 89.0963C129.412 89.0963 123.561 83.2577 123.533 76.0209V54.2362H107.771L123.584 38.2901L123.556 29.5466C123.584 15.9119 134.613 4.87972 148.227 4.85118H175.285V0H148.227C131.952 0.0285364 118.742 13.2352 118.72 29.5352L118.742 36.2926L105.698 49.4193V59.076H118.697V75.9924C118.725 85.923 126.751 93.9361 136.629 93.9361H138.082V105.55H175.291V100.711H142.912H142.918ZM106.301 82.8468L106.165 82.7726C104.291 81.6369 102.035 81.3173 99.91 81.8538C97.8194 82.4188 95.9909 83.7885 94.9199 85.6947L90.7843 92.9601H88.7963V80.3699L95.3472 71.8432C96.908 69.7714 97.5745 67.1061 97.1472 64.5208C97.1472 64.4922 97.1472 64.4408 97.1188 64.3895C96.2073 59.3271 91.428 55.9427 86.3582 56.7189C84.1025 57.0956 82.0062 58.2542 80.4738 60.1889L68.5 75.239V107.006H73.3306V76.9341L84.2563 63.2195C85.7316 61.3304 88.4146 60.9309 90.4084 62.2493C91.4508 62.9513 92.1743 64.0813 92.3964 65.3426C92.6072 66.6096 92.2882 67.8995 91.5078 68.8982L83.96 78.7433V97.8113H93.5699L99.1011 88.1032C100.013 86.4938 102.086 85.9459 103.664 86.9161L103.801 86.996C105.276 87.8863 105.817 89.764 105.06 91.2993L97.2498 107.006H102.644L109.377 93.4452C111.263 89.6556 109.913 85.0555 106.29 82.8468H106.301Z" fill="#1D1D50"/>
<path d="M163.038 58.2541C163.038 48.7173 168.221 42.0797 177.096 42.0797C180.582 42.0797 183.938 42.9758 186.569 45.8636L183.556 48.8029C181.386 46.6284 179.346 45.8636 177.051 45.8636C172.682 45.8636 169.964 50.2925 169.873 57.1869C171.354 54.6357 173.952 52.9749 177.734 52.9749C184.063 52.9749 188.011 57.1869 188.011 62.5917C188.011 67.9964 183.425 72.9732 176.162 72.9732C167.88 72.9732 163.032 67.1004 163.032 58.2541H163.038ZM181.386 62.9341C181.386 59.2757 179.307 56.6789 175.951 56.6789C172.596 56.6789 170.426 59.2757 170.426 62.9341C170.426 66.5925 172.505 69.2292 175.951 69.2292C179.398 69.2292 181.386 66.5925 181.386 62.9341Z" fill="#1D1D50"/>
<path d="M204.468 42.0854C213.006 42.0854 218.361 48.5118 218.361 57.5293C218.361 66.5468 212.796 72.9732 204.468 72.9732C196.139 72.9732 190.58 66.5525 190.58 57.5293C190.58 48.5061 196.145 42.0854 204.468 42.0854ZM204.468 45.8694C200.224 45.8694 197.461 50.4637 197.461 57.5293C197.461 64.5949 200.224 69.1893 204.468 69.1893C208.711 69.1893 211.48 64.5949 211.48 57.5293C211.48 50.4637 208.672 45.8694 204.468 45.8694Z" fill="#1D1D50"/>
<path d="M237.706 61.7014H228.956V58.083H237.706V48.9799H241.523V58.083H250.272V61.7014H241.523V70.7645H237.706V61.7014Z" fill="#1D1D50"/>
</g>
<defs>
<clipPath id="clip0_3_12330">
<rect width="193" height="107" fill="white" transform="translate(68.5)"/>
</clipPath>
</defs>
</svg>
