<svg width="55" height="55" viewBox="0 0 55 55" fill="none" xmlns="http://www.w3.org/2000/svg">
<path d="M42.487 10.7433C41.5539 10.7466 40.6426 11.0257 39.8677 11.5455C39.0928 12.0653 38.4888 12.8025 38.1317 13.6646C37.7747 14.5267 37.6804 15.4751 37.8608 16.3906C38.0413 17.3061 38.4883 18.1478 39.1458 18.81C40.0395 19.7037 41.2243 20.1964 42.487 20.1964C43.7498 20.1964 44.9368 19.7037 45.8306 18.8122C46.4888 18.1502 46.9366 17.3083 47.1175 16.3924C47.2983 15.4765 47.2043 14.5276 46.8471 13.6651C46.4899 12.8025 45.8856 12.0649 45.1102 11.545C44.3348 11.0251 43.4206 10.7461 42.487 10.7433ZM44.0064 16.9881C43.8075 17.1884 43.5707 17.3473 43.3099 17.4555C43.0491 17.5637 42.7694 17.619 42.487 17.6183C42.2047 17.6191 41.9249 17.5639 41.6641 17.4557C41.4033 17.3475 41.1665 17.1885 40.9677 16.9881C40.7158 16.7384 40.5295 16.4304 40.4254 16.0913C40.3213 15.7523 40.3026 15.3928 40.371 15.0447C40.4394 14.6967 40.5927 14.371 40.8174 14.0966C41.0421 13.8222 41.3311 13.6075 41.6587 13.4717C41.9864 13.336 42.3425 13.2833 42.6954 13.3184C43.0483 13.3535 43.3871 13.4753 43.6816 13.6729C43.9761 13.8705 44.2172 14.1379 44.3834 14.4512C44.5496 14.7645 44.6358 15.114 44.6343 15.4687C44.6343 16.0416 44.412 16.5825 44.0064 16.9881ZM25.7304 18.9062C25.7304 20.1689 26.2208 21.3583 27.1145 22.2497C28.0083 23.1435 29.1931 23.6339 30.4558 23.6339C31.0769 23.6357 31.6923 23.5143 32.2662 23.2767C32.8401 23.0391 33.3612 22.69 33.7993 22.2497C34.4576 21.5877 34.9053 20.7458 35.0862 19.8299C35.2671 18.914 35.173 17.9651 34.8158 17.1026C34.4587 16.24 33.8544 15.5024 33.0789 14.9825C32.3035 14.4626 31.3917 14.1836 30.4581 14.1808C29.205 14.182 28.0035 14.6802 27.1172 15.566C26.231 16.4519 25.7322 17.6531 25.7304 18.9062ZM30.4558 16.7589C31.0046 16.79 31.5207 17.0299 31.8982 17.4294C32.2757 17.8289 32.4861 18.3577 32.4861 18.9073C32.4861 19.457 32.2757 19.9858 31.8982 20.3853C31.5207 20.7848 31.0046 21.0247 30.4558 21.0558C30.1734 21.0566 29.8937 21.0014 29.6329 20.8932C29.372 20.785 29.1353 20.626 28.9364 20.4256C28.6379 20.1244 28.4351 19.7418 28.3533 19.3257C28.2715 18.9097 28.3145 18.4787 28.4768 18.087C28.6391 17.6953 28.9136 17.3603 29.2657 17.124C29.6177 16.8877 30.0318 16.7607 30.4558 16.7589ZM17.3818 13.8829L18.6698 16.1172C19.755 15.4898 20.5469 14.4574 20.8717 13.2466C21.1965 12.0359 21.0277 10.7457 20.4023 9.65933C19.7744 8.57449 18.7418 7.78304 17.5311 7.45866C16.3204 7.13429 15.0304 7.30348 13.9443 7.92912L15.2345 10.1612C15.7253 9.91431 16.292 9.86449 16.8184 10.022C17.3447 10.1794 17.7909 10.5323 18.0655 11.0081C18.34 11.484 18.4222 12.0469 18.2951 12.5814C18.168 13.1159 17.8412 13.5815 17.3818 13.8829ZM48.2987 40.5968C48.9236 39.5109 49.0924 38.2215 48.7681 37.0114C48.4437 35.8012 47.6527 34.769 46.5685 34.1412C45.4826 33.5163 44.1932 33.3475 42.983 33.6718C41.7729 33.9962 40.7407 34.7872 40.1129 35.8714L42.345 37.1593C42.4858 36.9146 42.6737 36.7003 42.8979 36.5288C43.1222 36.3573 43.3782 36.232 43.6512 36.1602C44.0615 36.0506 44.4951 36.0651 44.8972 36.2017C45.2994 36.3383 45.652 36.591 45.9106 36.9279C46.1693 37.2647 46.3223 37.6707 46.3505 38.0944C46.3787 38.5182 46.2807 38.9408 46.0689 39.3089L48.2987 40.5968ZM31.1318 9.89995C30.8878 10.0413 30.6181 10.1329 30.3385 10.1695C30.0588 10.2061 29.7747 10.1869 29.5025 10.1131L28.8333 12.6041C29.4326 12.7663 30.0582 12.8081 30.6738 12.7271C31.2894 12.6461 31.8828 12.4438 32.4198 12.132C33.2266 11.6628 33.8768 10.9655 34.2883 10.1278C34.6999 9.29003 34.8545 8.34929 34.7328 7.42388C34.6111 6.49847 34.2184 5.62973 33.6041 4.92693C32.9899 4.22413 32.1816 3.71867 31.2808 3.47412L30.6139 5.96287C31.0236 6.07405 31.3912 6.30389 31.6705 6.62348C31.9499 6.94307 32.1284 7.33813 32.1838 7.75896C32.2391 8.1798 32.1688 8.60761 31.9816 8.98857C31.7945 9.36952 31.4988 9.68662 31.1318 9.89995ZM34.1087 27.5C34.1087 28.7627 34.5991 29.952 35.4929 30.8435C36.3866 31.7372 37.5714 32.2277 38.8341 32.2277C39.4553 32.2294 40.0706 32.108 40.6445 31.8704C41.2184 31.6328 41.7395 31.2838 42.1777 30.8435C42.8359 30.1815 43.2837 29.3396 43.4645 28.4237C43.6454 27.5078 43.5514 26.5589 43.1942 25.6963C42.837 24.8338 42.2327 24.0961 41.4573 23.5762C40.6819 23.0563 39.77 22.7774 38.8364 22.7745C37.5833 22.7757 36.3819 23.2739 35.4956 24.1598C34.6093 25.0456 34.1105 26.2469 34.1087 27.5ZM38.8364 25.3527C39.3852 25.3837 39.9013 25.6236 40.2788 26.0231C40.6564 26.4226 40.8667 26.9514 40.8667 27.5011C40.8667 28.0508 40.6564 28.5796 40.2788 28.9791C39.9013 29.3786 39.3852 29.6185 38.8364 29.6495C38.554 29.6504 38.2743 29.5951 38.0135 29.4869C37.7527 29.3787 37.5159 29.2198 37.317 29.0193C37.0186 28.7182 36.8157 28.3355 36.7339 27.9195C36.6522 27.5034 36.6951 27.0725 36.8575 26.6808C37.0198 26.289 37.2942 25.954 37.6463 25.7177C37.9984 25.4814 38.4124 25.3544 38.8364 25.3527ZM21.9125 45.2787V47.9462L26.2093 46.7958V44.126L21.9125 45.2787ZM15.0398 47.1189V49.7887L19.3343 48.6383V45.9685L15.0398 47.1189Z" fill="white"/>
<path d="M14.9117 15.4688H11.7721L2.3877 50.5083L4.49145 52.6167L12.4642 50.4785V47.811L5.26374 49.7406L12.4619 22.8685V47.811L15.04 47.119V19.2431L19.3346 23.5377V45.9685L21.9127 45.2765V26.1181L26.2096 30.4127V44.126L28.7877 43.4363V32.9908L37.0262 41.2294L28.7877 43.4363V46.1038L39.531 43.2254V40.0881L14.9117 15.4688Z" fill="white"/>
</svg>
