<svg width="55" height="55" viewBox="0 0 55 55" fill="none" xmlns="http://www.w3.org/2000/svg">
<path d="M21.0992 10.2665V19.6646L3.86816 24.8209V34.3771H6.44629V26.7413L23.6796 21.585V10.2665C23.7214 9.28105 24.1423 8.34986 24.8544 7.66736C25.5664 6.98486 26.5146 6.60383 27.501 6.60383C28.4873 6.60383 29.4355 6.98486 30.1476 7.66736C30.8596 8.34986 31.2805 9.28105 31.3223 10.2665V21.5827L48.5557 26.739V34.3748H51.1338V24.8209L33.9005 19.6646V10.2688C33.8986 8.5718 33.2237 6.94483 32.0237 5.74487C30.8238 4.54492 29.1968 3.86998 27.4998 3.86816C25.8032 3.86998 24.1766 4.5446 22.9767 5.74406C21.7768 6.94352 21.1016 8.5699 21.0992 10.2665Z" fill="#0B76FD"/>
<path d="M44.6875 33.9443V31.3662H31.3683V45.3775L36.135 48.5537H18.8673L23.634 45.3775V31.3662H10.3125V33.9466H21.0558V43.9979L15.8996 47.4354V51.1318H39.1027V47.4377L33.9465 44.0002V33.9466L44.6875 33.9443Z" fill="#0B76FD"/>
</svg>
