<svg width="55" height="55" viewBox="0 0 55 55" fill="none" xmlns="http://www.w3.org/2000/svg">
<path d="M15.895 13.7502C15.898 16.8269 17.1217 19.7766 19.2975 21.952C21.4733 24.1273 24.4233 25.3504 27.5 25.3529C30.5751 25.348 33.5228 24.1238 35.6966 21.9487C37.8703 19.7737 39.0928 16.8253 39.0958 13.7502C39.0928 10.6751 37.8703 7.72667 35.6966 5.55159C33.5228 3.37652 30.5751 2.15231 27.5 2.14746C24.4233 2.14989 21.4733 3.37302 19.2975 5.54836C17.1217 7.72369 15.898 10.6735 15.895 13.7502ZM36.52 13.7502C36.5176 16.1421 35.5666 18.4354 33.8757 20.1272C32.1848 21.819 29.8919 22.7711 27.5 22.7747C25.1065 22.7735 22.8113 21.8225 21.1184 20.1305C19.4255 18.4384 18.4733 16.1437 18.4708 13.7502C18.4733 11.3567 19.4255 9.06193 21.1184 7.36989C22.8113 5.67784 25.1065 4.7268 27.5 4.72559C29.8919 4.72923 32.1848 5.68134 33.8757 7.37312C35.5666 9.0649 36.5176 11.3582 36.52 13.7502ZM34.9067 32.2279H38.2388V36.7035C37.2499 36.9848 36.3796 37.5804 35.7594 38.4003C35.1392 39.2202 34.8028 40.2198 34.8013 41.2479V44.6877H37.3794V41.2502C37.4104 40.702 37.6501 40.1864 38.0491 39.8093C38.4482 39.4322 38.9765 39.2221 39.5255 39.2221C40.0746 39.2221 40.6028 39.4322 41.0019 39.8093C41.401 40.1864 41.6406 40.702 41.6717 41.2502V44.6877H44.2498V41.2502C44.2498 39.0914 42.7969 37.2673 40.8169 36.7035V32.2279H42.9665C44.4471 32.2297 45.8665 32.8187 46.9135 33.8656C47.9605 34.9126 48.5494 36.332 48.5513 37.8127V44.6877H51.1294V37.8127C51.127 35.6483 50.2662 33.5732 48.736 32.0425C47.2057 30.5118 45.1309 29.6505 42.9665 29.6475H33.8388L29.111 34.3752H32.7571L34.9067 32.2279ZM51.5625 48.556H3.4375V51.1341H51.5625V48.556ZM6.44188 37.8127C6.44309 36.3313 7.03212 34.9109 8.07963 33.8633C9.12715 32.8158 10.5475 32.2268 12.029 32.2256H14.1763V36.7493C13.4233 37.0161 12.7713 37.5093 12.3097 38.1612C11.8481 38.8132 11.5996 39.592 11.5981 40.3908C11.5981 42.522 13.3329 44.2591 15.4665 44.2591C16.4916 44.2573 17.4743 43.8491 18.199 43.124C18.9237 42.3988 19.3313 41.416 19.3325 40.3908C19.3325 38.711 18.2554 37.281 16.7544 36.7493V32.2256H20.0888L26.2075 38.3466V44.6877H28.7856V37.2787L21.1544 29.6475H12.0312C9.86605 29.6493 7.79002 30.51 6.25877 32.0409C4.72753 33.5717 3.86618 35.6475 3.86375 37.8127V44.6877H6.44188V37.8127ZM15.4665 41.681C15.2969 41.681 15.129 41.6476 14.9723 41.5827C14.8156 41.5178 14.6732 41.4227 14.5533 41.3028C14.4334 41.1829 14.3383 41.0405 14.2734 40.8838C14.2085 40.7271 14.1751 40.5592 14.1751 40.3896C14.1751 40.2201 14.2085 40.0521 14.2734 39.8955C14.3383 39.7388 14.4334 39.5964 14.5533 39.4765C14.6732 39.3566 14.8156 39.2615 14.9723 39.1966C15.129 39.1317 15.2969 39.0983 15.4665 39.0983C15.8089 39.0983 16.1374 39.2343 16.3796 39.4765C16.6218 39.7187 16.7578 40.0472 16.7578 40.3896C16.7578 40.7321 16.6218 41.0606 16.3796 41.3028C16.1374 41.5449 15.8089 41.681 15.4665 41.681Z" fill="white"/>
</svg>
