<svg width="55" height="55" viewBox="0 0 55 55" fill="none" xmlns="http://www.w3.org/2000/svg">
<path d="M20.7394 3.4375H17.0911L25.678 12.0313H29.3217L20.7394 3.4375ZM18.0352 27.9308L14.8636 35.8531C14.7478 36.1431 14.57 36.4042 14.3428 36.6184C14.1156 36.8325 13.8444 36.9944 13.5482 37.0929L7.09942 39.2448C6.15819 39.5578 5.33946 40.1593 4.75944 40.9639C4.17942 41.7685 3.86757 42.7354 3.86816 43.7273V51.134H25.364C27.085 51.134 28.703 50.4625 29.9221 49.2456L49.8436 29.3219V25.6781L41.919 17.7535C41.1133 16.9504 40.2138 16.2471 39.24 15.659C37.6088 14.6848 35.7432 14.173 33.8432 14.1785H31.3682V18.9063C31.3651 21.2986 30.4133 23.592 28.7214 25.2834C27.0296 26.9749 24.7359 27.9261 22.3436 27.9285M28.098 47.4215C27.7397 47.7815 27.3136 48.0669 26.8443 48.2612C26.375 48.4555 25.8719 48.5549 25.364 48.5535H6.44629V43.7273C6.44629 42.8015 7.03754 41.981 7.91525 41.6877L14.364 39.5404C14.8177 39.3892 15.2394 39.1692 15.6175 38.8988L14.0317 38.1058L15.1867 35.8004L17.2492 36.8317C17.2492 36.8248 17.2538 36.8179 17.2584 36.8088L18.1521 34.579L16.6098 33.809L17.7625 31.5035L19.11 32.1773L19.7792 30.5067H22.3436C25.4191 30.503 28.3676 29.2797 30.5423 27.105C32.717 24.9303 33.9404 21.9818 33.944 18.9063V16.759C35.342 16.7702 36.7119 17.153 37.9132 17.8681C38.6946 18.3402 39.4486 18.9315 40.0971 19.5754L48.0194 27.5L28.098 47.4215ZM51.5623 48.5467H34.3748V51.1248H51.5623V48.5467ZM51.5623 41.6808H41.2498V44.259H51.5623V41.6808Z" fill="#0B76FD"/>
<path d="M42.916 25.7285L25.8775 42.7693C25.6784 42.9693 25.4415 43.1277 25.1807 43.2355C24.9199 43.3433 24.6403 43.3983 24.3581 43.3973H8.59375V45.9754H24.3581C24.9789 45.9769 25.5938 45.8553 26.1673 45.6177C26.7408 45.3801 27.2615 45.0312 27.6994 44.5912L44.7402 27.5527L42.916 25.7285Z" fill="#0B76FD"/>
<path d="M18.9063 37.6611L17.2494 36.8315L15.1869 35.8003L14.0319 38.1057L18.9063 40.5417V37.6611ZM21.4844 33.3642L19.1102 32.1771L17.765 31.5034L16.61 33.8088L21.4844 36.2448V33.3665V33.3642ZM3.4375 8.479V12.125L17.0935 25.7811H20.7373L3.4375 8.479Z" fill="#0B76FD"/>
</svg>
