<svg width="55" height="55" viewBox="0 0 55 55" fill="none" xmlns="http://www.w3.org/2000/svg">
<path d="M21.0992 10.2667V19.6649L3.86816 24.8211V34.3774H6.44629V26.7415L23.6796 21.5853V10.2667C23.7214 9.2813 24.1423 8.3501 24.8544 7.6676C25.5664 6.98511 26.5146 6.60407 27.501 6.60407C28.4873 6.60407 29.4355 6.98511 30.1476 7.6676C30.8596 8.3501 31.2805 9.2813 31.3223 10.2667V21.583L48.5557 26.7392V34.3751H51.1338V24.8211L33.9005 19.6649V10.269C33.8986 8.57204 33.2237 6.94507 32.0237 5.74512C30.8238 4.54516 29.1968 3.87023 27.4998 3.86841C25.8032 3.87023 24.1766 4.54485 22.9767 5.74431C21.7768 6.94377 21.1016 8.57015 21.0992 10.2667Z" fill="white"/>
<path d="M44.6875 33.9441V31.366H31.3683V45.3772L36.135 48.5535H18.8673L23.634 45.3772V31.366H10.3125V33.9464H21.0558V43.9976L15.8996 47.4351V51.1316H39.1027V47.4374L33.9465 43.9999V33.9464L44.6875 33.9441Z" fill="white"/>
</svg>
