<svg width="28" height="28" viewBox="0 0 28 28" fill="none" xmlns="http://www.w3.org/2000/svg">
<g clip-path="url(#clip0_3_12382)">
<path d="M22.27 3.99993L19.99 5.37993V6.82993L23.99 4.42993V3.57993L19.99 1.17993V2.62993L22.27 3.99993Z" fill="#B3E4FE"/>
<path d="M22.27 13.9999L19.99 15.3799V16.8299L23.99 14.4299V13.5799L19.99 11.1799V12.6299L22.27 13.9999Z" fill="#B3E4FE"/>
<path d="M22.27 23.9999L19.99 25.3799V26.8299L23.99 24.4299V23.5799L19.99 21.1799V22.6299L22.27 24.0099V23.9999Z" fill="#B3E4FE"/>
<path d="M27.64 -0.00012207H26.39V27.9999H27.64V-0.00012207Z" fill="#B3E4FE"/>
<path d="M17.99 3.37988H0V4.62988H17.99V3.37988Z" fill="#B3E4FE"/>
<path d="M17.99 13.3799H0V14.6299H17.99V13.3799Z" fill="#B3E4FE"/>
<path d="M17.99 23.3799H0V24.6299H17.99V23.3799Z" fill="#B3E4FE"/>
</g>
<defs>
<clipPath id="clip0_3_12382">
<rect width="27.64" height="28" fill="white"/>
</clipPath>
</defs>
</svg>
