<svg width="55" height="55" viewBox="0 0 55 55" fill="none" xmlns="http://www.w3.org/2000/svg">
<path d="M45.7645 26.8585L43.9404 25.0344C45.7901 23.1794 46.8288 20.6667 46.8288 18.0471C46.8288 15.4275 45.7901 12.9147 43.9404 11.0598C43.0248 10.1387 41.9356 9.40831 40.7358 8.91109C39.536 8.41387 38.2495 8.15964 36.9508 8.16313C35.6528 8.16024 34.3672 8.41477 33.1682 8.91197C31.9692 9.40918 30.8808 10.1392 29.9658 11.0598L28.1416 9.23563C29.296 8.07471 30.6692 7.1543 32.1816 6.52767C33.6941 5.90104 35.3159 5.58063 36.9531 5.58501C40.2806 5.58501 43.411 6.88209 45.7645 9.23563C48.0979 11.5745 49.4083 14.7433 49.4083 18.0471C49.4083 21.3508 48.0979 24.5197 45.7645 26.8585Z" fill="white"/>
<path d="M40.86 23.2558L39.0359 21.4317C39.7593 20.7057 40.1656 19.7226 40.1656 18.6977C40.1656 17.6728 39.7593 16.6897 39.0359 15.9638C38.3099 15.2403 37.3268 14.834 36.3019 14.834C35.277 14.834 34.2939 15.2403 33.5679 15.9638L31.7438 14.1396C32.9536 12.9324 34.5928 12.2545 36.3019 12.2545C38.0109 12.2545 39.6502 12.9324 40.86 14.1396C42.0672 15.3494 42.7451 16.9887 42.7451 18.6977C42.7451 20.4068 42.0672 22.046 40.86 23.2558ZM40.9402 29.2188H37.2965L32.1311 34.3865C31.9321 34.5868 31.6954 34.7457 31.4345 34.8539C31.1737 34.9621 30.894 35.0174 30.6117 35.0167C30.3293 35.0174 30.0496 34.9621 29.7888 34.8539C29.528 34.7457 29.2913 34.5868 29.0923 34.3865L20.5856 25.8798C20.3856 25.6807 20.2271 25.4439 20.1193 25.1831C20.0115 24.9223 19.9566 24.6426 19.9577 24.3604C19.9569 24.0786 20.0119 23.7994 20.1197 23.539C20.2275 23.2786 20.3859 23.0421 20.5856 22.8433L25.7809 17.6458V14.0594L15.159 3.4375H12.0354L10.6925 4.77125C8.47995 6.95784 6.72406 9.56239 5.5269 12.4335C4.32974 15.3047 3.7152 18.3851 3.71898 21.4958C3.70526 24.6067 4.31004 27.6893 5.49815 30.5644C6.68627 33.4394 8.43402 36.0497 10.6398 38.2433L16.7288 44.33C18.9175 46.5309 21.521 48.2759 24.3886 49.4639C27.2563 50.6518 30.3311 51.2592 33.435 51.2508H33.4969C36.6117 51.2524 39.6956 50.6339 42.5689 49.4316C45.4423 48.2292 48.0476 46.4669 50.2329 44.2475L51.5621 42.9023V39.8429L40.9402 29.2188ZM48.3973 42.4348C46.4507 44.4118 44.1301 45.9816 41.5708 47.053C39.0114 48.1243 36.2645 48.6757 33.49 48.675H33.435C30.6691 48.6827 27.9292 48.1416 25.3738 47.083C22.8185 46.0245 20.4986 44.4695 18.5484 42.5081L12.4663 36.4215C10.5013 34.4673 8.94421 32.1421 7.88555 29.581C6.82688 27.0199 6.28772 24.274 6.29939 21.5027C6.29542 18.7311 6.84241 15.9863 7.90856 13.4279C8.97472 10.8695 10.5388 8.54859 12.5098 6.6L13.5961 5.52292L23.9292 15.8538L18.7638 21.0192C18.3235 21.4573 17.9744 21.9784 17.7368 22.5523C17.4992 23.1262 17.3778 23.7416 17.3796 24.3627C17.3796 25.6231 17.87 26.8102 18.7638 27.704L27.2681 36.2106C28.1619 37.1044 29.349 37.5948 30.6094 37.5948C31.2305 37.5966 31.8459 37.4752 32.4198 37.2376C32.9937 37 33.5148 36.6509 33.9529 36.2106L39.1184 31.0452L49.4469 41.3738L48.3973 42.4348Z" fill="white"/>
</svg>
