<svg width="336" height="293" viewBox="0 0 336 293" fill="none" xmlns="http://www.w3.org/2000/svg">
<path d="M336 165.397C336 154.463 329.337 145.01 319.863 140.884C329.941 123.029 317.058 100.893 296.545 100.799H233.416C229.645 100.799 225.874 101.671 222.377 103.239V26.7544C222.29 2.96267 193.543 -8.93631 176.62 7.86664C171.547 12.9324 168.742 19.6723 168.742 26.7544V42.35C168.742 57.1366 160.844 71.1391 148.141 78.8498L121.483 94.7815C114.819 98.7022 107.277 100.806 99.5796 100.806H75.6321V116.557H99.5796C110.17 116.557 120.516 113.669 129.629 108.243L156.288 92.3108C173.722 81.7374 184.518 62.7376 184.518 42.35V26.7544C184.518 20.724 189.498 15.7329 195.556 15.82C201.684 15.82 206.595 20.724 206.595 26.7544V143.261L193.263 156.635C180.56 169.337 163.282 176.506 145.243 176.419H100.876V192.17H145.243C167.501 192.257 188.713 183.433 204.395 167.75L206.595 165.485C206.682 172.834 209.668 179.487 214.492 184.304H214.405C209.4 189.276 206.595 196.022 206.595 203.105C206.595 218.003 218.687 229.989 233.503 229.989H234.133C229.645 240.14 231.845 251.945 239.743 259.743C244.723 264.715 251.567 267.609 258.66 267.541H283.904C298.714 267.541 310.744 255.53 310.744 240.743C310.744 236.194 309.509 231.738 307.222 227.792C316.69 223.604 323.359 214.238 323.359 203.192C323.359 198.462 322.125 194.006 319.856 189.992C329.324 185.872 335.994 176.413 335.994 165.391L336 165.397ZM233.429 116.644H296.557C310.494 117.341 310.494 137.909 296.557 138.625H233.429C227.395 138.625 222.477 133.808 222.39 127.759V127.51C222.483 121.461 227.395 116.557 233.429 116.557V116.644ZM283.916 251.771H258.672C252.639 251.771 247.634 246.886 247.634 240.749C247.634 237.862 248.781 235.148 250.8 233.132C252.907 231.116 255.712 229.995 258.585 230.083H283.923C289.981 229.902 294.986 234.719 294.986 240.749C294.986 246.78 289.981 251.771 283.923 251.771H283.916ZM296.551 214.244H233.603C227.389 214.244 222.384 209.334 222.384 203.111C222.384 200.242 223.53 197.51 225.637 195.512C227.725 193.409 230.53 192.176 233.516 192.176H233.603L296.551 192.444C299.443 192.444 302.341 193.589 304.429 195.605C306.449 197.597 307.596 200.335 307.596 203.198C307.596 209.334 302.678 214.244 296.557 214.244H296.551ZM309.16 176.425H233.603C227.476 176.512 222.471 171.521 222.384 165.404C222.477 159.355 227.476 154.382 233.516 154.469H309.16C323.098 155.166 323.098 175.734 309.16 176.425ZM96.1576 228.402V222.104H80.3817V228.402C80.3817 252.038 96.2449 267.79 119.831 267.79H201.871V252.038H119.831C105.021 252.038 96.1576 243.214 96.1576 228.402ZM0 92.1366H29.8938V277.249H0V293H45.6635V76.3854H0V92.1366Z" fill="white"/>
</svg>
