<svg width="98" height="100" viewBox="0 0 98 100" fill="none" xmlns="http://www.w3.org/2000/svg">
<path d="M98 79.9364H82.4865V64.2538H78.0721V79.9364H62.5586V84.3808H78.0721V99.9999H82.4865V84.3808H98V79.9364ZM4.41441 9.3967H12.8649V4.95226H0V17.9046H4.41441V9.4602V9.3967ZM96.6757 24.9523H92.2613V60.6983H96.6757V24.9523ZM4.41441 24.9523H0V98.6031H58.964V94.1586H4.41441V24.9523ZM92.1982 17.8411H96.6126V4.88877H83.7477V9.33321H92.1982V17.7777V17.8411ZM25.7297 -0.00012207H21.3153V10.73H25.7297V-0.00012207ZM75.3604 -0.00012207H70.9459V10.73H75.3604V-0.00012207ZM62.4955 4.88877H34.1171V9.33321H62.4955V4.88877ZM90.8739 19.1745H5.73874V23.6189H90.8739V19.1745Z" fill="#B3E4FE"/>
</svg>
