<svg width="38" height="46" viewBox="0 0 38 46" fill="none" xmlns="http://www.w3.org/2000/svg">
<path d="M0.68457 32.8729C0.68457 28.0475 3.64854 24.3649 8.75664 22.3332C4.46836 20.3014 1.81971 16.9364 1.81971 12.8094C1.81971 5.31731 8.81971 0.110962 18.9098 0.110962C28.9999 0.110962 35.9999 5.31731 35.9999 12.8094C35.9999 16.9364 33.3512 20.3649 29.063 22.3332C34.108 24.3649 37.135 28.0475 37.135 32.8729C37.135 40.6189 29.9458 45.6983 18.9098 45.6983C7.87376 45.6983 0.68457 40.6189 0.68457 32.8729ZM27.3602 32.8094C27.3602 28.4284 24.0179 25.5078 18.9729 25.5078C13.9278 25.5078 10.5855 28.3649 10.5855 32.8094C10.5855 37.2538 13.9278 40.111 18.9729 40.111C24.0179 40.111 27.3602 37.2538 27.3602 32.8094ZM26.2882 12.9364C26.2882 8.80937 23.2611 5.82525 18.9098 5.82525C14.5584 5.82525 11.5314 8.74588 11.5314 12.9364C11.5314 17.1268 14.5584 20.0475 18.9098 20.0475C23.2611 20.0475 26.2882 17.1268 26.2882 12.9364Z" fill="#B3E4FE"/>
</svg>
