<svg width="105" height="89" viewBox="0 0 105 89" fill="none" xmlns="http://www.w3.org/2000/svg">
<path d="M38.4998 39.8159V57.1589C38.4998 61.2022 37.6787 63.5022 35.7443 64.7856L7.329 83.9231C6.87912 84.2184 6.3224 84.2468 5.84441 83.9799C5.39454 83.7414 5.10774 83.253 5.10774 82.7192V39.1514C5.10774 25.6075 13.6722 13.6139 26.3644 9.33205L37.0714 5.74873V0.6662L24.8517 4.78333C10.1913 9.67278 0.305317 23.5347 0.333434 39.1401V82.7079C0.333434 87.7222 5.84441 90.715 9.98327 87.9324L38.3929 68.7948C42.768 65.8475 43.2741 60.7366 43.2741 57.1532V39.8102H38.5054L38.4998 39.8159ZM66.274 68.7948L94.6836 87.9324C98.8225 90.715 104.362 87.7223 104.333 82.7135V39.1458C104.333 23.5404 94.4755 9.67846 79.7927 4.77765L67.6011 0.660522V5.74305L78.28 9.32637C91.0002 13.6082 99.5929 25.5961 99.5648 39.1458V82.7135C99.5648 83.2474 99.2723 83.7357 98.8 83.9742C98.3445 84.2411 97.7596 84.2127 97.3435 83.9174L68.9282 64.7799C66.9938 63.4965 66.1727 61.1966 66.1727 57.1532V39.8102H61.4041V57.1532C61.4041 60.7366 61.9045 65.8475 66.2796 68.7948H66.274Z" fill="#1D1D50"/>
</svg>
