<svg width="109" height="123" viewBox="0 0 109 123" fill="none" xmlns="http://www.w3.org/2000/svg">
<path d="M7.59087 51.7098C4.13467 49.7223 1.63444 46.4834 0.604933 42.5821C-0.424573 38.7543 0.09018 34.6321 2.07566 31.1724C6.26722 24.0322 15.3857 21.5294 22.5922 25.6516C25.9014 27.5655 28.4016 30.7308 29.5046 34.4113L34.358 37.2085C37.1524 34.9266 40.3145 33.0863 43.6971 31.8349V26.3141C41.0498 23.5169 39.5791 19.8364 39.5791 15.935C39.5791 7.69063 46.2709 0.918449 54.5805 0.918449C62.8901 0.918449 69.5819 7.61702 69.5819 15.935C69.5819 19.7628 68.1111 23.5169 65.4638 26.3141V31.8349C68.8465 33.0863 72.0821 34.9266 74.8029 37.2085L79.5828 34.4113C80.6858 30.7308 83.1125 27.5655 86.4952 25.6516C93.6282 21.5294 102.82 23.9586 107.012 31.1724C108.997 34.6321 109.512 38.7543 108.482 42.5821C107.453 46.4098 104.953 49.7223 101.497 51.7098C98.1874 53.6237 94.2165 54.2125 90.4661 53.2556L85.6863 56.0528C86.2746 59.6597 86.2746 63.2667 85.6863 66.8736L90.4661 69.6708C94.2165 68.7874 98.1874 69.3027 101.497 71.2166C108.63 75.3388 111.13 84.5401 107.012 91.754C105.026 95.2137 101.791 97.7164 97.8933 98.747C94.0694 99.7775 89.9514 99.2623 86.4952 97.2748C83.1861 95.3609 80.6858 92.1956 79.5828 88.5151L74.7294 85.7179C71.935 88.0734 68.773 89.8401 65.3903 91.1651V96.6859C68.0376 99.4831 69.5083 103.164 69.5083 107.065C69.5083 115.309 62.743 122.082 54.5069 122.082C46.2709 122.082 39.5056 115.383 39.5056 107.065C39.5056 103.237 40.9763 99.4831 43.6236 96.6859V91.1651C40.2409 89.9137 37.0053 88.0734 34.2845 85.7179L29.4311 88.5151C28.3281 92.1956 25.9014 95.3609 22.5187 97.2748C19.0625 99.2623 15.018 99.7775 11.1206 98.747C7.29672 97.7164 3.9876 95.2137 2.00212 91.754C-2.11591 84.5401 0.310789 75.4124 7.51733 71.2166C10.8265 69.3027 14.7974 68.7138 18.5478 69.6708L23.3276 66.8736C22.7393 63.2667 22.7393 59.6597 23.3276 56.0528L18.5478 53.2556C14.7974 54.1389 10.8265 53.6237 7.51733 51.7098H7.59087ZM29.284 53.4764L28.8428 55.3903C27.8869 59.3653 27.8869 63.5611 28.8428 67.6097L29.284 69.4499L19.2831 75.2652L18.1801 74.8971C15.5328 74.0138 12.6649 74.3082 10.1646 75.7068C2.66395 80.1235 4.13467 91.4595 12.5178 93.7415C17.9595 95.2137 23.4747 91.8276 24.6513 86.3068L24.8719 85.2026L34.9463 79.3874L36.3435 80.7124C39.3585 83.5832 42.9618 85.6443 46.9327 86.8221L48.7711 87.3373V98.8942L47.8887 99.7039C41.1969 105.74 45.462 116.855 54.4334 116.855C63.4048 116.855 67.6699 105.74 60.9781 99.7039L60.0957 98.8942V87.3373L61.9341 86.8221C65.8315 85.6443 69.5083 83.5096 72.4498 80.7124L73.847 79.3874L83.9214 85.2026L84.142 86.3068C85.3186 91.8276 90.8338 95.2137 96.2755 93.7415C104.732 91.4595 106.203 80.1235 98.6286 75.7068C96.202 74.3082 93.334 74.0138 90.6132 74.8971L89.5102 75.2652L79.4357 69.4499L79.8769 67.6097C80.8329 63.5611 80.8329 59.3653 79.8769 55.3903L79.4357 53.55L89.5102 47.7348L90.6132 48.1029C95.9813 49.8695 101.717 46.7779 103.188 41.2571C105.394 32.8655 96.349 25.8725 88.7748 30.2155C86.3481 31.6141 84.6568 33.9696 84.0685 36.6932L83.8479 37.7974L73.7734 43.6126L72.3762 42.2876C69.3613 39.4168 65.758 37.3557 61.8606 36.1779L60.0222 35.6627V24.0322L60.9046 23.2961C67.5964 17.26 63.4048 6.14481 54.3599 6.14481C45.3885 6.14481 41.1234 17.26 47.8152 23.2961L48.6976 24.1058V35.6627L46.8592 36.1779C42.8882 37.3557 39.285 39.4168 36.27 42.2876L34.8728 43.6126L24.7983 37.7974L24.5777 36.6932C23.9894 33.9696 22.2981 31.5405 19.8714 30.2155C12.2972 25.8725 3.25224 32.8655 5.45832 41.2571C6.92904 46.7043 12.6649 49.8695 18.033 48.1029L19.136 47.7348L29.137 53.55L29.284 53.4764Z" fill="#1D1D50"/>
</svg>
