<svg width="82" height="62" viewBox="0 0 82 62" fill="none" xmlns="http://www.w3.org/2000/svg">
<path d="M64.9086 0.676212V7.4545C72.3939 14.2077 76.6793 23.7962 76.6793 33.8541V38.1289C76.6479 48.3683 68.3155 56.6612 58.0506 56.6925H23.9556C13.6656 56.6925 5.35833 48.3683 5.32696 38.1101V33.8604C5.32696 23.4457 9.82569 14.07 16.9785 7.57967V0.732539C6.33086 8.43087 0 20.7294 0 33.8541V38.1038C0 51.2911 10.7355 61.9937 23.9493 61.9937H58.0444C71.2645 61.9937 81.9686 51.3162 81.9937 38.1226V33.8479C81.9937 20.1849 75.2237 8.09915 64.9023 0.663696L64.9086 0.676212Z" fill="#1D1D50"/>
</svg>
