<svg width="58" height="57" viewBox="0 0 58 57" fill="none" xmlns="http://www.w3.org/2000/svg">
<path d="M28.953 56.2792C37.9756 56.2792 46.4335 51.9731 51.7228 44.6879C57.1062 37.3713 58.5807 27.9018 55.7196 19.321C53.6427 13.0934 49.4765 7.77972 43.9174 4.29983C39.4187 1.47085 34.2486 -0.00622559 28.953 -0.00622559C13.3737 0.0313272 0.749634 12.5927 0.718262 28.1459C0.718262 34.1042 2.61313 39.8811 6.13306 44.6879C11.4537 51.9731 19.9116 56.2792 28.9593 56.2792H28.953ZM18.2175 7.96749C16.1219 15.1338 21.4739 22.3001 28.9279 22.3001C33.5961 22.3001 37.5866 19.4399 39.2744 15.3967H32.9435C31.8455 16.4294 30.4275 16.9927 28.9216 16.9927C21.4677 16.6672 21.4677 5.63295 28.9216 5.3075C34.418 5.3075 39.7387 7.28528 43.9112 10.8778C54.1447 19.6965 54.4961 35.4186 44.6829 44.6879C40.4226 48.7248 34.8007 50.9717 28.9467 50.9717C23.0927 50.9717 17.4458 48.7311 13.1855 44.6879C8.63654 40.3818 6.03267 34.3984 6.03267 28.1459C6.03267 19.4086 10.9706 11.8292 18.2113 7.96749H18.2175Z" fill="#1D1D50"/>
</svg>
