<svg width="103" height="107" viewBox="0 0 103 107" fill="none" xmlns="http://www.w3.org/2000/svg">
<path d="M97.521 107H102.226C100.687 92.7466 93.2025 79.8204 81.6093 71.4104V77.3586C90.4724 84.8818 96.1697 95.4728 97.521 107ZM21.7187 77.4797V71.5151C10.2082 79.9471 2.76808 92.8237 1.24034 107H5.94489C7.32372 95.5223 12.9383 84.9865 21.7242 77.4852L21.7187 77.4797ZM97.9898 35.9751C97.9898 39.1915 95.8057 41.9232 92.844 42.7273V47.5243C98.5082 46.5936 102.667 41.7084 102.667 35.9751C102.667 30.2418 98.5082 25.3841 92.844 24.4534V29.2229C95.8829 30.082 97.9898 32.8303 97.9898 35.9751ZM5.34372 35.9751C5.34372 32.7587 7.52778 30.0545 10.495 29.2229V24.4534C4.82529 25.3841 0.666748 30.2693 0.666748 35.9751C0.666748 41.6809 4.93008 46.6211 10.495 47.5243V42.7273C7.45609 41.8957 5.34372 39.1474 5.34372 35.9751ZM84.4166 21.0222C81.3997 14.4848 76.5132 8.99928 70.3802 5.23765C64.7435 1.81197 58.2686 0 51.6668 0C51.4351 0 51.2035 0.0275376 50.9663 0.0275376C31.3649 0.413064 15.6684 16.4069 15.6408 35.9751C15.6408 43.0853 17.7697 50.0413 21.7242 55.9619C28.4032 65.958 39.6324 71.9502 51.6668 71.9502C65.7528 71.9502 78.5704 63.722 84.4221 50.928C86.5235 46.3843 87.6982 41.3009 87.6982 35.9751C87.6982 30.6493 86.529 25.5934 84.4221 21.0222H84.4166ZM78.1016 52.7675C72.3546 61.8053 62.372 67.2798 51.6612 67.2798C40.9505 67.2798 31.0009 61.8053 25.2209 52.7675C22.0275 47.7612 20.3123 41.9452 20.3123 35.9751C20.3398 23.2858 28.0061 11.8356 39.7813 7.01107C38.6617 9.00479 38.0936 11.2629 38.0936 13.5485C38.0936 21.0222 44.177 27.097 51.6612 27.097C57.717 27.097 63.0228 23.104 64.7104 17.2881H59.7191C58.2631 20.4219 55.1193 22.4266 51.6612 22.4266C46.7526 22.4266 42.7706 18.4557 42.7706 13.5485C42.7706 8.64129 46.7747 4.67037 51.6612 4.67037C58.6822 4.67037 65.1517 6.98353 70.3802 10.8773C78.3332 16.7649 83.0102 26.0891 83.0102 35.9751C83.0102 42.1545 81.1957 47.9154 78.1016 52.7675Z" fill="#1D1D50"/>
</svg>
